<?xml version="1.0" standalone="no"?>
<!DOCTYPE svg PUBLIC "-//W3C//DTD SVG 20010904//EN"
 "http://www.w3.org/TR/2001/REC-SVG-20010904/DTD/svg10.dtd">
<svg version="1.0" xmlns="http://www.w3.org/2000/svg"
 width="889.000000pt" height="889.000000pt" viewBox="0 0 889.000000 889.000000"
 preserveAspectRatio="xMidYMid meet">
<metadata>
Created by potrace 1.14, written by Peter Selinger 2001-2017
</metadata>
<g transform="translate(0.000000,889.000000) scale(0.100000,-0.100000)"
fill="#000000" stroke="none">
<path d="M4929 7916 c-2 -2 -46 -7 -96 -10 -51 -4 -103 -9 -115 -11 -13 -2
-50 -6 -83 -10 -33 -3 -96 -12 -140 -20 -44 -8 -95 -17 -113 -20 -18 -3 -65
-12 -105 -21 -39 -8 -82 -17 -93 -20 -139 -27 -443 -121 -629 -195 -103 -40
-116 -43 -210 -43 -55 0 -125 3 -155 7 -242 31 -345 17 -424 -59 -81 -77 -116
-181 -113 -329 2 -72 7 -100 26 -139 44 -89 153 -180 254 -211 23 -7 60 -21
81 -30 83 -35 224 -15 321 46 82 51 133 108 182 204 90 176 103 192 178 233
174 94 553 221 765 257 19 3 51 10 70 15 19 5 53 11 75 15 23 3 51 7 64 10 13
2 49 7 80 11 31 3 65 8 75 10 93 17 504 24 686 11 179 -12 384 -42 565 -83 11
-3 38 -9 60 -13 305 -66 726 -265 1049 -498 199 -144 430 -361 566 -532 19
-24 42 -51 50 -60 18 -20 85 -111 125 -170 379 -561 577 -1205 576 -1876 0
-88 -2 -180 -5 -205 -3 -25 -8 -76 -11 -115 -3 -38 -8 -81 -10 -95 -31 -198
-32 -198 -65 -330 -99 -391 -257 -718 -527 -1089 -86 -119 -288 -335 -428
-458 -83 -73 -280 -224 -318 -244 -12 -7 -24 -15 -27 -18 -12 -15 -186 -115
-310 -179 -363 -186 -812 -312 -1241 -349 -182 -15 -642 -8 -770 12 -13 2 -53
6 -89 10 -36 4 -72 8 -80 10 -8 2 -35 6 -60 10 -87 12 -106 16 -200 36 -404
85 -709 198 -1046 385 -86 48 -255 165 -325 226 -102 87 -266 253 -341 346
-34 42 -65 79 -68 82 -3 3 -17 21 -30 40 -13 19 -27 37 -30 40 -3 3 -9 12 -15
21 -5 8 -36 56 -69 105 -32 49 -68 105 -81 124 -40 62 -188 323 -221 390 -97
200 -102 430 -14 690 36 107 61 162 189 418 175 351 211 455 176 508 -12 19
-23 24 -43 22 -21 -2 -28 2 -30 19 -6 41 -51 56 -104 35 -30 -12 -99 -105
-153 -207 -91 -170 -170 -313 -192 -347 -12 -21 -23 -40 -23 -42 0 -11 -82
-125 -106 -147 -35 -33 -110 -32 -187 4 -70 32 -78 38 -213 163 -148 137 -143
133 -212 193 -34 30 -72 61 -85 70 -14 9 -42 28 -63 43 -76 54 -133 43 -153
-29 -21 -74 51 -168 374 -483 167 -163 210 -239 343 -610 198 -546 380 -896
631 -1207 137 -169 219 -255 407 -423 69 -62 225 -176 348 -254 327 -209 869
-413 1276 -481 19 -3 60 -10 90 -15 30 -5 67 -11 81 -14 15 -2 53 -8 85 -11
33 -4 67 -9 77 -11 10 -2 52 -6 93 -9 42 -4 85 -8 96 -10 108 -21 634 -21 818
0 19 2 62 6 95 10 33 3 103 13 155 21 52 8 111 17 130 20 19 3 43 7 52 10 10
3 30 8 45 10 16 3 48 10 73 15 25 6 54 12 64 15 116 23 464 140 584 195 35 16
65 29 68 29 11 0 226 108 282 142 34 21 64 38 67 38 2 0 46 26 97 58 550 344
1013 887 1271 1492 41 97 122 321 132 366 2 11 13 51 24 89 20 74 55 233 66
300 35 229 40 306 40 575 -1 252 -4 298 -30 484 -87 615 -342 1210 -725 1690
-126 158 -325 360 -465 471 -27 22 -52 43 -55 46 -12 15 -319 234 -374 266
-280 166 -484 263 -756 360 -252 89 -592 166 -840 189 -30 3 -66 8 -80 11 -28
6 -625 15 -631 9z"/>
<path d="M1843 7124 c-19 -19 -24 -33 -21 -55 3 -16 3 -29 2 -29 -16 0 -64 30
-84 53 -19 22 -34 29 -61 29 -45 0 -186 -58 -199 -82 -34 -64 17 -140 88 -131
7 1 24 -7 39 -18 33 -27 46 -26 129 5 79 29 107 52 107 87 0 23 2 24 45 19 25
-3 53 -13 63 -23 13 -13 34 -17 85 -18 149 -1 236 -40 338 -152 102 -113 163
-280 183 -497 12 -134 6 -383 -12 -492 -26 -159 -40 -225 -69 -331 -36 -132
-107 -332 -137 -389 -26 -48 -24 -86 7 -117 20 -20 32 -24 54 -19 20 3 32 1
37 -9 13 -22 55 -34 80 -22 21 9 61 91 112 227 22 60 79 240 85 274 3 12 14
62 25 113 12 50 26 125 32 165 6 40 13 87 15 103 3 17 7 116 8 221 5 320 -40
535 -146 710 -49 82 -131 164 -238 239 -92 65 -186 115 -215 115 -7 0 -16 4
-19 9 -5 8 -30 13 -121 28 -11 2 -57 5 -103 8 -79 4 -85 3 -109 -21z"/>
<path d="M5029 7060 c-100 -31 -216 -103 -288 -179 -109 -115 -229 -336 -255
-472 -2 -13 -9 -45 -15 -71 -30 -130 -32 -318 -5 -463 25 -134 105 -308 182
-397 118 -138 257 -201 422 -193 106 5 114 6 203 48 301 141 513 545 501 955
-2 72 -10 157 -17 192 -2 8 -7 31 -11 50 -30 138 -96 267 -197 385 -31 35
-133 107 -184 128 -98 41 -237 48 -336 17z"/>
<path d="M917 6994 c-1 -1 -29 -5 -62 -7 -33 -3 -68 -8 -77 -12 -46 -18 -58
-100 -20 -137 11 -11 37 -22 58 -25 21 -2 47 -11 57 -21 31 -27 203 -16 240
16 34 30 11 112 -31 112 -6 0 -27 16 -46 35 -20 19 -41 36 -48 36 -31 3 -69 5
-71 3z"/>
<path d="M535 6922 c-57 -24 -130 -68 -195 -117 -253 -194 -366 -476 -326
-815 24 -199 141 -527 255 -715 23 -37 41 -69 41 -71 0 -8 95 -142 156 -221
73 -93 234 -258 296 -303 22 -16 54 -30 69 -30 15 0 31 -5 34 -11 12 -19 54
-29 80 -19 51 20 49 73 -4 115 -93 73 -263 261 -351 388 -211 306 -350 681
-352 951 -1 292 149 529 417 657 79 38 102 66 84 101 -15 29 -28 38 -56 38
-13 0 -23 6 -23 14 0 18 -47 56 -69 55 -9 0 -34 -8 -56 -17z"/>
<path d="M3425 6389 c-226 -26 -391 -176 -480 -439 -13 -39 -22 -70 -20 -70 2
0 -1 -15 -6 -32 -11 -38 -22 -141 -22 -208 0 -50 12 -191 18 -199 2 -4 6 -23
9 -45 4 -21 18 -73 32 -115 112 -325 351 -548 609 -568 265 -20 496 175 576
487 27 105 33 159 32 285 -4 360 -201 715 -467 845 -44 22 -92 42 -106 44 -14
3 -45 8 -70 13 -25 5 -72 5 -105 2z"/>
<path d="M6887 6334 c-1 -1 -23 -5 -49 -8 -186 -25 -410 -149 -567 -315 -354
-372 -429 -899 -166 -1167 197 -200 536 -199 845 5 146 96 280 240 378 406
192 328 189 721 -7 924 -72 74 -186 133 -284 146 -47 7 -146 12 -150 9z"/>
<path d="M4678 4834 c-2 -1 -28 -5 -58 -8 -289 -33 -592 -172 -884 -406 -263
-210 -531 -567 -615 -817 -54 -162 -16 -359 97 -503 112 -144 282 -255 449
-295 80 -19 136 -17 273 10 98 20 412 28 527 14 56 -7 88 -18 145 -51 96 -55
223 -142 269 -185 20 -19 43 -40 51 -46 8 -7 53 -66 99 -132 109 -156 230
-278 327 -328 40 -21 80 -40 90 -42 9 -1 35 -8 57 -13 71 -19 98 -22 190 -22
181 1 276 25 372 97 155 114 299 370 337 598 3 17 9 48 13 70 10 52 10 378 0
430 -4 22 -10 56 -12 75 -6 41 -8 50 -30 148 -40 173 -162 471 -239 585 -14
21 -26 40 -26 42 0 3 -24 38 -52 79 -319 448 -780 705 -1265 703 -62 0 -114
-1 -115 -3z"/>
<path d="M7587 4684 c-1 -1 -31 -4 -67 -8 -469 -42 -912 -495 -895 -915 4
-112 9 -132 50 -216 68 -140 216 -245 382 -272 59 -9 191 -9 258 0 241 33 505
191 670 400 204 257 248 571 111 777 -91 136 -256 221 -454 233 -29 2 -53 3
-55 1z"/>
</g>
</svg>
